
<global>
ampeg_attack=0.001
ampeg_release=1.5
</global>

<group>
color=red
group_label=MainHits_RR2
seq_length=4
seq_position=1

<region>
hivel=103
key=D3
lovel=78
offset=512
sample=Bass_a4_PuffyMallets_Center_Hits_F_D4_RR2.opus
</region>

<region>
hivel=127
key=D3
lovel=104
offset=506
sample=Bass_a4_PuffyMallets_Center_Hits_FF_D4_RR2.opus
</region>

<region>
hivel=77
key=D3
lovel=52
offset=513
sample=Bass_a4_PuffyMallets_Center_Hits_MF_D4_RR2.opus
</region>

<region>
hivel=51
key=D3
lovel=26
offset=551
sample=Bass_a4_PuffyMallets_Center_Hits_MP_D4_RR2.opus
</region>

<region>
hivel=25
key=D3
lovel=0
offset=623
sample=Bass_a4_PuffyMallets_Center_Hits_P_D4_RR2.opus
</region>

<region>
hivel=103
key=E3
lovel=78
offset=1982
sample=Bass_a4_PuffyMallets_Edge_Hits_F_D4_RR2.opus
</region>

<region>
hivel=127
key=E3
lovel=104
offset=1550
sample=Bass_a4_PuffyMallets_Edge_Hits_FF_D4_RR2.opus
</region>

<region>
hivel=77
key=E3
lovel=52
offset=1120
sample=Bass_a4_PuffyMallets_Edge_Hits_MF_D4_RR2.opus
</region>

<region>
hivel=51
key=E3
lovel=26
offset=5088
sample=Bass_a4_PuffyMallets_Edge_Hits_MP_D4_RR2.opus
</region>

<region>
hivel=25
key=E3
lovel=0
offset=6429
sample=Bass_a4_PuffyMallets_Edge_Hits_P_D4_RR2.opus
</region>

<region>
hivel=103
key=D#3
lovel=78
offset=489
sample=Bass_a4_PuffyMallets_Halfway_Hits_F_D4_RR2.opus
</region>

<region>
hivel=127
key=D#3
lovel=104
offset=493
sample=Bass_a4_PuffyMallets_Halfway_Hits_FF_D4_RR2.opus
</region>

<region>
hivel=77
key=D#3
lovel=52
offset=505
sample=Bass_a4_PuffyMallets_Halfway_Hits_MF_D4_RR2.opus
</region>

<region>
hivel=51
key=D#3
lovel=26
offset=438
sample=Bass_a4_PuffyMallets_Halfway_Hits_MP_D4_RR2.opus
</region>

<region>
hivel=25
key=D#3
lovel=0
offset=2259
sample=Bass_a4_PuffyMallets_Halfway_Hits_P_D4_RR2.opus
</region>
</group>

<group>
color=red
group_label=MainHits_RR4
seq_length=4
seq_position=2

<region>
hivel=103
key=D3
lovel=78
offset=516
sample=Bass_a4_PuffyMallets_Center_Hits_F_D4_RR4.opus
</region>

<region>
hivel=127
key=D3
lovel=104
offset=503
sample=Bass_a4_PuffyMallets_Center_Hits_FF_D4_RR4.opus
</region>

<region>
hivel=77
key=D3
lovel=52
offset=516
sample=Bass_a4_PuffyMallets_Center_Hits_MF_D4_RR4.opus
</region>

<region>
hivel=51
key=D3
lovel=26
offset=543
sample=Bass_a4_PuffyMallets_Center_Hits_MP_D4_RR4.opus
</region>

<region>
hivel=25
key=D3
lovel=0
offset=5485
sample=Bass_a4_PuffyMallets_Center_Hits_P_D4_RR4.opus
</region>

<region>
hivel=103
key=E3
lovel=78
offset=1797
sample=Bass_a4_PuffyMallets_Edge_Hits_F_D4_RR4.opus
</region>

<region>
hivel=127
key=E3
lovel=104
offset=1515
sample=Bass_a4_PuffyMallets_Edge_Hits_FF_D4_RR4.opus
</region>

<region>
hivel=77
key=E3
lovel=52
offset=1117
sample=Bass_a4_PuffyMallets_Edge_Hits_MF_D4_RR4.opus
</region>

<region>
hivel=51
key=E3
lovel=26
offset=5734
sample=Bass_a4_PuffyMallets_Edge_Hits_MP_D4_RR4.opus
</region>

<region>
hivel=25
key=E3
lovel=0
offset=5324
sample=Bass_a4_PuffyMallets_Edge_Hits_P_D4_RR4.opus
</region>

<region>
hivel=103
key=D#3
lovel=78
offset=514
sample=Bass_a4_PuffyMallets_Halfway_Hits_F_D4_RR4.opus
</region>

<region>
hivel=127
key=D#3
lovel=104
offset=505
sample=Bass_a4_PuffyMallets_Halfway_Hits_FF_D4_RR4.opus
</region>

<region>
hivel=77
key=D#3
lovel=52
offset=521
sample=Bass_a4_PuffyMallets_Halfway_Hits_MF_D4_RR4.opus
</region>

<region>
hivel=51
key=D#3
lovel=26
offset=517
sample=Bass_a4_PuffyMallets_Halfway_Hits_MP_D4_RR4.opus
</region>

<region>
hivel=25
key=D#3
lovel=0
offset=6271
sample=Bass_a4_PuffyMallets_Halfway_Hits_P_D4_RR4.opus
</region>
</group>

<group>
color=red
group_label=MainHits_RR6
seq_length=4
seq_position=3

<region>
hivel=103
key=D3
lovel=78
offset=511
sample=Bass_a4_PuffyMallets_Center_Hits_F_D4_RR6.opus
</region>

<region>
hivel=127
key=D3
lovel=104
offset=515
sample=Bass_a4_PuffyMallets_Center_Hits_FF_D4_RR6.opus
</region>

<region>
hivel=77
key=D3
lovel=52
offset=526
sample=Bass_a4_PuffyMallets_Center_Hits_MF_D4_RR6.opus
</region>

<region>
hivel=51
key=D3
lovel=26
offset=283
sample=Bass_a4_PuffyMallets_Center_Hits_MP_D4_RR6.opus
</region>

<region>
hivel=25
key=D3
lovel=0
offset=6447
sample=Bass_a4_PuffyMallets_Center_Hits_P_D4_RR6.opus
</region>

<region>
hivel=103
key=E3
lovel=78
offset=1676
sample=Bass_a4_PuffyMallets_Edge_Hits_F_D4_RR6.opus
</region>

<region>
hivel=127
key=E3
lovel=104
offset=1599
sample=Bass_a4_PuffyMallets_Edge_Hits_FF_D4_RR6.opus
</region>

<region>
hivel=77
key=E3
lovel=52
offset=1213
sample=Bass_a4_PuffyMallets_Edge_Hits_MF_D4_RR6.opus
</region>

<region>
hivel=51
key=E3
lovel=26
offset=5875
sample=Bass_a4_PuffyMallets_Edge_Hits_MP_D4_RR6.opus
</region>

<region>
hivel=25
key=E3
lovel=0
offset=6919
sample=Bass_a4_PuffyMallets_Edge_Hits_P_D4_RR6.opus
</region>

<region>
hivel=103
key=D#3
lovel=78
offset=505
sample=Bass_a4_PuffyMallets_Halfway_Hits_F_D4_RR6.opus
</region>

<region>
hivel=127
key=D#3
lovel=104
offset=492
sample=Bass_a4_PuffyMallets_Halfway_Hits_FF_D4_RR6.opus
</region>

<region>
hivel=77
key=D#3
lovel=52
offset=531
sample=Bass_a4_PuffyMallets_Halfway_Hits_MF_D4_RR6.opus
</region>

<region>
hivel=51
key=D#3
lovel=26
offset=539
sample=Bass_a4_PuffyMallets_Halfway_Hits_MP_D4_RR6.opus
</region>

<region>
hivel=25
key=D#3
lovel=0
offset=4192
sample=Bass_a4_PuffyMallets_Halfway_Hits_P_D4_RR6.opus
</region>
</group>

<group>
color=red
group_label=MainHIts_RR8
seq_length=4
seq_position=4

<region>
hivel=103
key=D3
lovel=78
offset=521
sample=Bass_a4_PuffyMallets_Center_Hits_F_D4_RR8.opus
</region>

<region>
hivel=127
key=D3
lovel=104
offset=515
sample=Bass_a4_PuffyMallets_Center_Hits_FF_D4_RR8.opus
</region>

<region>
hivel=77
key=D3
lovel=52
offset=516
sample=Bass_a4_PuffyMallets_Center_Hits_MF_D4_RR8.opus
</region>

<region>
hivel=51
key=D3
lovel=26
offset=550
sample=Bass_a4_PuffyMallets_Center_Hits_MP_D4_RR8.opus
</region>

<region>
hivel=25
key=D3
lovel=0
offset=526
sample=Bass_a4_PuffyMallets_Center_Hits_P_D4_RR8.opus
</region>

<region>
hivel=103
key=E3
lovel=78
offset=1763
sample=Bass_a4_PuffyMallets_Edge_Hits_F_D4_RR8.opus
</region>

<region>
hivel=127
key=E3
lovel=104
offset=701
sample=Bass_a4_PuffyMallets_Edge_Hits_FF_D4_RR8.opus
</region>

<region>
hivel=77
key=E3
lovel=52
offset=847
sample=Bass_a4_PuffyMallets_Edge_Hits_MF_D4_RR8.opus
</region>

<region>
hivel=51
key=E3
lovel=26
offset=5124
sample=Bass_a4_PuffyMallets_Edge_Hits_MP_D4_RR8.opus
</region>

<region>
hivel=25
key=E3
lovel=0
offset=8072
sample=Bass_a4_PuffyMallets_Edge_Hits_P_D4_RR8.opus
</region>

<region>
hivel=103
key=D#3
lovel=78
offset=494
sample=Bass_a4_PuffyMallets_Halfway_Hits_F_D4_RR8.opus
</region>

<region>
hivel=127
key=D#3
lovel=104
offset=518
sample=Bass_a4_PuffyMallets_Halfway_Hits_FF_D4_RR8.opus
</region>

<region>
hivel=77
key=D#3
lovel=52
offset=533
sample=Bass_a4_PuffyMallets_Halfway_Hits_MF_D4_RR8.opus
</region>

<region>
hivel=51
key=D#3
lovel=26
offset=521
sample=Bass_a4_PuffyMallets_Halfway_Hits_MP_D4_RR8.opus
</region>

<region>
hivel=25
key=D#3
lovel=0
offset=6813
sample=Bass_a4_PuffyMallets_Halfway_Hits_P_D4_RR8.opus
</region>
</group>

<group>
color=green
group_label=AltHits_RR2
seq_length=2
seq_position=1

<region>
hivel=103
key=D4
lovel=78
offset=515
sample=Bass_a4_PuffyMallets_Center_Buzz_Stroke_F_D4_RR2.opus
</region>

<region>
hivel=127
key=D4
lovel=104
offset=523
sample=Bass_a4_PuffyMallets_Center_Buzz_Stroke_FF_D4_RR2.opus
</region>

<region>
hivel=77
key=D4
lovel=52
offset=525
sample=Bass_a4_PuffyMallets_Center_Buzz_Stroke_MF_D4_RR2.opus
</region>

<region>
hivel=51
key=D4
lovel=26
offset=503
sample=Bass_a4_PuffyMallets_Center_Buzz_Stroke_MP_D4_RR2.opus
</region>

<region>
hivel=25
key=D4
lovel=0
offset=388
sample=Bass_a4_PuffyMallets_Center_Buzz_Stroke_P_D4_RR2.opus
</region>

<region>
hivel=103
key=G4
lovel=78
offset=522
sample=Bass_a4_PuffyMallets_Center_Dry_Buzz_Stroke_F_D4_RR2.opus
</region>

<region>
hivel=127
key=G4
lovel=104
offset=523
sample=Bass_a4_PuffyMallets_Center_Dry_Buzz_Stroke_FF_D4_RR2.opus
</region>

<region>
hivel=77
key=G4
lovel=52
offset=526
sample=Bass_a4_PuffyMallets_Center_Dry_Buzz_Stroke_MF_D4_RR2.opus
</region>

<region>
hivel=51
key=G4
lovel=26
offset=519
sample=Bass_a4_PuffyMallets_Center_Dry_Buzz_Stroke_MP_D4_RR2.opus
</region>

<region>
hivel=25
key=G4
lovel=0
offset=3977
sample=Bass_a4_PuffyMallets_Center_Dry_Buzz_Stroke_P_D4_RR2.opus
</region>

<region>
hivel=103
key=E4
lovel=78
offset=1241
sample=Bass_a4_PuffyMallets_Edge_Buzz_Stroke_F_D4_RR2.opus
</region>

<region>
hivel=127
key=E4
lovel=104
offset=491
sample=Bass_a4_PuffyMallets_Edge_Buzz_Stroke_FF_D4_RR2.opus
</region>

<region>
hivel=77
key=E4
lovel=52
offset=525
sample=Bass_a4_PuffyMallets_Edge_Buzz_Stroke_MF_D4_RR2.opus
</region>

<region>
hivel=51
key=E4
lovel=26
offset=531
sample=Bass_a4_PuffyMallets_Edge_Buzz_Stroke_MP_D4_RR2.opus
</region>

<region>
hivel=25
key=E4
lovel=0
offset=8087
sample=Bass_a4_PuffyMallets_Edge_Buzz_Stroke_P_D4_RR2.opus
</region>

<region>
hivel=103
key=A4
lovel=78
offset=1518
sample=Bass_a4_PuffyMallets_Edge_Dry_Buzz_Stroke_F_D4_RR2.opus
</region>

<region>
hivel=127
key=A4
lovel=104
offset=847
sample=Bass_a4_PuffyMallets_Edge_Dry_Buzz_Stroke_FF_D4_RR2.opus
</region>

<region>
hivel=77
key=A4
lovel=52
offset=536
sample=Bass_a4_PuffyMallets_Edge_Dry_Buzz_Stroke_MF_D4_RR2.opus
</region>

<region>
hivel=51
key=A4
lovel=26
offset=3370
sample=Bass_a4_PuffyMallets_Edge_Dry_Buzz_Stroke_MP_D4_RR2.opus
</region>

<region>
hivel=25
key=A4
lovel=0
offset=7835
sample=Bass_a4_PuffyMallets_Edge_Dry_Buzz_Stroke_P_D4_RR2.opus
</region>

<region>
hivel=103
key=D#4
lovel=78
offset=516
sample=Bass_a4_PuffyMallets_Halfway_Buzz_Stroke_F_D4_RR2.opus
</region>

<region>
hivel=127
key=D#4
lovel=104
offset=487
sample=Bass_a4_PuffyMallets_Halfway_Buzz_Stroke_FF_D4_RR2.opus
</region>

<region>
hivel=77
key=D#4
lovel=52
offset=528
sample=Bass_a4_PuffyMallets_Halfway_Buzz_Stroke_MF_D4_RR2.opus
</region>

<region>
hivel=51
key=D#4
lovel=26
offset=533
sample=Bass_a4_PuffyMallets_Halfway_Buzz_Stroke_MP_D4_RR2.opus
</region>

<region>
hivel=25
key=D#4
lovel=0
offset=3641
sample=Bass_a4_PuffyMallets_Halfway_Buzz_Stroke_P_D4_RR2.opus
</region>

<region>
hivel=103
key=G#4
lovel=78
offset=533
sample=Bass_a4_PuffyMallets_Halfway_Dry_Buzz_Stroke_F_D4_RR2.opus
</region>

<region>
hivel=127
key=G#4
lovel=104
offset=525
sample=Bass_a4_PuffyMallets_Halfway_Dry_Buzz_Stroke_FF_D4_RR2.opus
</region>

<region>
hivel=77
key=G#4
lovel=52
offset=530
sample=Bass_a4_PuffyMallets_Halfway_Dry_Buzz_Stroke_MF_D4_RR2.opus
</region>

<region>
hivel=51
key=G#4
lovel=26
offset=530
sample=Bass_a4_PuffyMallets_Halfway_Dry_Buzz_Stroke_MP_D4_RR2.opus
</region>

<region>
hivel=25
key=G#4
lovel=0
offset=549
sample=Bass_a4_PuffyMallets_Halfway_Dry_Buzz_Stroke_P_D4_RR2.opus
</region>
</group>

<group>
color=green
group_label=AltHits_RR4
seq_length=2
seq_position=2

<region>
hivel=103
key=D4
lovel=78
offset=506
sample=Bass_a4_PuffyMallets_Center_Buzz_Stroke_F_D4_RR4.opus
</region>

<region>
hivel=127
key=D4
lovel=104
offset=510
sample=Bass_a4_PuffyMallets_Center_Buzz_Stroke_FF_D4_RR4.opus
</region>

<region>
hivel=77
key=D4
lovel=52
offset=523
sample=Bass_a4_PuffyMallets_Center_Buzz_Stroke_MF_D4_RR4.opus
</region>

<region>
hivel=51
key=D4
lovel=26
offset=522
sample=Bass_a4_PuffyMallets_Center_Buzz_Stroke_MP_D4_RR4.opus
</region>

<region>
hivel=25
key=D4
lovel=0
offset=542
sample=Bass_a4_PuffyMallets_Center_Buzz_Stroke_P_D4_RR4.opus
</region>

<region>
hivel=103
key=G4
lovel=78
offset=522
sample=Bass_a4_PuffyMallets_Center_Dry_Buzz_Stroke_F_D4_RR4.opus
</region>

<region>
hivel=127
key=G4
lovel=104
offset=511
sample=Bass_a4_PuffyMallets_Center_Dry_Buzz_Stroke_FF_D4_RR4.opus
</region>

<region>
hivel=77
key=G4
lovel=52
offset=525
sample=Bass_a4_PuffyMallets_Center_Dry_Buzz_Stroke_MF_D4_RR4.opus
</region>

<region>
hivel=51
key=G4
lovel=26
offset=487
sample=Bass_a4_PuffyMallets_Center_Dry_Buzz_Stroke_MP_D4_RR4.opus
</region>

<region>
hivel=25
key=G4
lovel=0
offset=632
sample=Bass_a4_PuffyMallets_Center_Dry_Buzz_Stroke_P_D4_RR4.opus
</region>

<region>
hivel=103
key=E4
lovel=78
offset=1285
sample=Bass_a4_PuffyMallets_Edge_Buzz_Stroke_F_D4_RR4.opus
</region>

<region>
hivel=127
key=E4
lovel=104
offset=868
sample=Bass_a4_PuffyMallets_Edge_Buzz_Stroke_FF_D4_RR4.opus
</region>

<region>
hivel=77
key=E4
lovel=52
offset=519
sample=Bass_a4_PuffyMallets_Edge_Buzz_Stroke_MF_D4_RR4.opus
</region>

<region>
hivel=51
key=E4
lovel=26
offset=4494
sample=Bass_a4_PuffyMallets_Edge_Buzz_Stroke_MP_D4_RR4.opus
</region>

<region>
hivel=25
key=E4
lovel=0
offset=6470
sample=Bass_a4_PuffyMallets_Edge_Buzz_Stroke_P_D4_RR4.opus
</region>

<region>
hivel=103
key=A4
lovel=78
offset=918
sample=Bass_a4_PuffyMallets_Edge_Dry_Buzz_Stroke_F_D4_RR4.opus
</region>

<region>
hivel=127
key=A4
lovel=104
offset=912
sample=Bass_a4_PuffyMallets_Edge_Dry_Buzz_Stroke_FF_D4_RR4.opus
</region>

<region>
hivel=77
key=A4
lovel=52
offset=528
sample=Bass_a4_PuffyMallets_Edge_Dry_Buzz_Stroke_MF_D4_RR4.opus
</region>

<region>
hivel=51
key=A4
lovel=26
offset=526
sample=Bass_a4_PuffyMallets_Edge_Dry_Buzz_Stroke_MP_D4_RR4.opus
</region>

<region>
hivel=25
key=A4
lovel=0
offset=6806
sample=Bass_a4_PuffyMallets_Edge_Dry_Buzz_Stroke_P_D4_RR4.opus
</region>

<region>
hivel=103
key=D#4
lovel=78
offset=506
sample=Bass_a4_PuffyMallets_Halfway_Buzz_Stroke_F_D4_RR4.opus
</region>

<region>
hivel=127
key=D#4
lovel=104
offset=515
sample=Bass_a4_PuffyMallets_Halfway_Buzz_Stroke_FF_D4_RR4.opus
</region>

<region>
hivel=77
key=D#4
lovel=52
offset=524
sample=Bass_a4_PuffyMallets_Halfway_Buzz_Stroke_MF_D4_RR4.opus
</region>

<region>
hivel=51
key=D#4
lovel=26
offset=542
sample=Bass_a4_PuffyMallets_Halfway_Buzz_Stroke_MP_D4_RR4.opus
</region>

<region>
hivel=25
key=D#4
lovel=0
offset=4399
sample=Bass_a4_PuffyMallets_Halfway_Buzz_Stroke_P_D4_RR4.opus
</region>

<region>
hivel=103
key=G#4
lovel=78
offset=501
sample=Bass_a4_PuffyMallets_Halfway_Dry_Buzz_Stroke_F_D4_RR4.opus
</region>

<region>
hivel=127
key=G#4
lovel=104
offset=515
sample=Bass_a4_PuffyMallets_Halfway_Dry_Buzz_Stroke_FF_D4_RR4.opus
</region>

<region>
hivel=77
key=G#4
lovel=52
offset=528
sample=Bass_a4_PuffyMallets_Halfway_Dry_Buzz_Stroke_MF_D4_RR4.opus
</region>

<region>
hivel=51
key=G#4
lovel=26
offset=530
sample=Bass_a4_PuffyMallets_Halfway_Dry_Buzz_Stroke_MP_D4_RR4.opus
</region>

<region>
hivel=25
key=G#4
lovel=0
offset=541
sample=Bass_a4_PuffyMallets_Halfway_Dry_Buzz_Stroke_P_D4_RR4.opus
</region>
</group>

<group>
amp_veltrack=0
ampeg_attack=0.001
ampeg_release=0.05
group_label=Rolls_RR1_0-25
seq_length=2
seq_position=1
trigger=release
xfin_hicc1=25
xfout_hicc1=50
xfout_locc1=25

<region>
hivel=127
key=D2
loop_end=116397
loop_mode=loop_continuous
loop_start=28764
loop_xfade=21631
lovel=1
offset=542
sample=Bass_a4_PuffyMallets_Center_Buzz_Roll_P_D4_RR1.opus
</region>

<region>
hivel=127
key=D#2
loop_end=116397
loop_mode=loop_continuous
loop_start=28926
loop_xfade=21631
lovel=1
offset=5678
sample=Bass_a4_PuffyMallets_Edge_Buzz_Roll_P_D4_RR1.opus
</region>

<region>
hivel=127
key=E2
loop_end=116397
loop_mode=loop_continuous
loop_start=29684
loop_xfade=21631
lovel=1
offset=547
sample=Bass_a4_PuffyMallets_Halfway_Buzz_Roll_P_D4_RR1.opus
</region>
</group>

<group>
amp_veltrack=0
ampeg_attack=0.001
ampeg_release=0.05
group_label=Rolls_RR1_26-51
seq_length=2
seq_position=1
trigger=release
xfin_hicc1=51
xfin_locc1=26
xfout_hicc1=76
xfout_locc1=51

<region>
hivel=127
key=D2
loop_end=113102
loop_mode=loop_continuous
loop_start=21019
loop_xfade=21019
lovel=1
offset=523
sample=Bass_a4_PuffyMallets_Center_Buzz_Roll_MP_D4_RR1.opus
</region>

<region>
hivel=127
key=D#2
loop_end=116397
loop_mode=loop_continuous
loop_start=29619
loop_xfade=21631
lovel=1
offset=519
sample=Bass_a4_PuffyMallets_Edge_Buzz_Roll_MP_D4_RR1.opus
</region>

<region>
hivel=127
key=E2
loop_end=112873
loop_mode=loop_continuous
loop_start=20976
loop_xfade=20976
lovel=1
offset=523
sample=Bass_a4_PuffyMallets_Halfway_Buzz_Roll_MP_D4_RR1.opus
</region>
</group>

<group>
amp_veltrack=0
ampeg_attack=0.001
ampeg_release=0.05
group_label=Rolls_RR1_52-77
seq_length=2
seq_position=1
trigger=release
xfin_hicc1=77
xfin_locc1=52
xfout_hicc1=102
xfout_locc1=77

<region>
hivel=127
key=D2
loop_end=113656
loop_mode=loop_continuous
loop_start=21122
loop_xfade=21122
lovel=1
offset=509
sample=Bass_a4_PuffyMallets_Center_Buzz_Roll_MF_D4_RR1.opus
</region>

<region>
hivel=127
key=D#2
loop_end=114125
loop_mode=loop_continuous
loop_start=21209
loop_xfade=21209
lovel=1
offset=500
sample=Bass_a4_PuffyMallets_Edge_Buzz_Roll_MF_D4_RR1.opus
</region>

<region>
hivel=127
key=E2
loop_end=113283
loop_mode=loop_continuous
loop_start=21052
loop_xfade=21052
lovel=1
offset=510
sample=Bass_a4_PuffyMallets_Halfway_Buzz_Roll_MF_D4_RR1.opus
</region>
</group>

<group>
amp_veltrack=0
ampeg_attack=0.001
ampeg_release=0.05
group_label=Rolls_RR1_78-103
seq_length=2
seq_position=1
trigger=release
xfin_hicc1=103
xfin_locc1=78
xfout_hicc1=127
xfout_locc1=103

<region>
hivel=127
key=D2
loop_end=113106
loop_mode=loop_continuous
loop_start=21019
loop_xfade=21019
lovel=1
offset=506
sample=Bass_a4_PuffyMallets_Center_Buzz_Roll_F_D4_RR1.opus
</region>

<region>
hivel=127
key=D#2
loop_end=114985
loop_mode=loop_continuous
loop_start=25068
loop_xfade=21369
lovel=1
offset=520
sample=Bass_a4_PuffyMallets_Edge_Buzz_Roll_F_D4_RR1.opus
</region>

<region>
hivel=127
key=E2
loop_end=113270
loop_mode=loop_continuous
loop_start=21050
loop_xfade=21050
lovel=1
offset=502
sample=Bass_a4_PuffyMallets_Halfway_Buzz_Roll_F_D4_RR1.opus
</region>
</group>

<group>
amp_veltrack=0
ampeg_attack=0.001
ampeg_release=0.05
group_label=Rolls_RR1_104-127
seq_length=2
seq_position=1
trigger=release
xfin_hicc1=127
xfin_locc1=104
xfout_hicc1=127
xfout_locc1=127

<region>
hivel=127
key=D2
loop_end=113296
loop_mode=loop_continuous
loop_start=21055
loop_xfade=21055
lovel=1
offset=505
sample=Bass_a4_PuffyMallets_Center_Buzz_Roll_FF_D4_RR1.opus
</region>

<region>
hivel=127
key=D#2
loop_end=113521
loop_mode=loop_continuous
loop_start=21097
loop_xfade=21097
lovel=1
offset=526
sample=Bass_a4_PuffyMallets_Edge_Buzz_Roll_FF_D4_RR1.opus
</region>

<region>
hivel=127
key=E2
loop_end=114570
loop_mode=loop_continuous
loop_start=21292
loop_xfade=21292
lovel=1
offset=524
sample=Bass_a4_PuffyMallets_Halfway_Buzz_Roll_FF_D4_RR1.opus
</region>
</group>

<group>
amp_veltrack=0
ampeg_attack=0.001
ampeg_release=0.05
group_label=Rolls_RR2_0-25
seq_length=2
seq_position=2
trigger=release
xfin_hicc1=25
xfout_hicc1=50
xfout_locc1=25

<region>
hivel=127
key=D2
loop_end=116397
loop_mode=loop_continuous
loop_start=27364
loop_xfade=21631
lovel=1
offset=547
sample=Bass_a4_PuffyMallets_Center_Buzz_Roll_P_D4_RR2.opus
</region>

<region>
hivel=127
key=D#2
loop_end=116397
loop_mode=loop_continuous
loop_start=28435
loop_xfade=21631
lovel=1
offset=7520
sample=Bass_a4_PuffyMallets_Edge_Buzz_Roll_P_D4_RR2.opus
</region>

<region>
hivel=127
key=E2
loop_end=116397
loop_mode=loop_continuous
loop_start=28555
loop_xfade=21631
lovel=1
offset=555
sample=Bass_a4_PuffyMallets_Halfway_Buzz_Roll_P_D4_RR2.opus
</region>
</group>

<group>
amp_veltrack=0
ampeg_attack=0.001
ampeg_release=0.05
group_label=Rolls_RR2_26-51
seq_length=2
seq_position=2
trigger=release
xfin_hicc1=51
xfin_locc1=26
xfout_hicc1=76
xfout_locc1=51

<region>
hivel=127
key=D2
loop_end=112904
loop_mode=loop_continuous
loop_start=20982
loop_xfade=20982
lovel=1
offset=528
sample=Bass_a4_PuffyMallets_Center_Buzz_Roll_MP_D4_RR2.opus
</region>

<region>
hivel=127
key=D#2
loop_end=113425
loop_mode=loop_continuous
loop_start=21079
loop_xfade=21079
lovel=1
offset=515
sample=Bass_a4_PuffyMallets_Edge_Buzz_Roll_MP_D4_RR2.opus
</region>

<region>
hivel=127
key=E2
loop_end=112540
loop_mode=loop_continuous
loop_start=20914
loop_xfade=20914
lovel=1
offset=515
sample=Bass_a4_PuffyMallets_Halfway_Buzz_Roll_MP_D4_RR2.opus
</region>
</group>

<group>
amp_veltrack=0
ampeg_attack=0.001
ampeg_release=0.05
group_label=Rolls_RR2_52-77
seq_length=2
seq_position=2
trigger=release
xfin_hicc1=77
xfin_locc1=52
xfout_hicc1=102
xfout_locc1=77

<region>
hivel=127
key=D2
loop_end=112191
loop_mode=loop_continuous
loop_start=20849
loop_xfade=20849
lovel=1
offset=519
sample=Bass_a4_PuffyMallets_Center_Buzz_Roll_MF_D4_RR2.opus
</region>

<region>
hivel=127
key=D#2
loop_end=113900
loop_mode=loop_continuous
loop_start=21167
loop_xfade=21167
lovel=1
offset=496
sample=Bass_a4_PuffyMallets_Edge_Buzz_Roll_MF_D4_RR2.opus
</region>

<region>
hivel=127
key=E2
loop_end=113291
loop_mode=loop_continuous
loop_start=21054
loop_xfade=21054
lovel=1
offset=502
sample=Bass_a4_PuffyMallets_Halfway_Buzz_Roll_MF_D4_RR2.opus
</region>
</group>

<group>
amp_veltrack=0
ampeg_attack=0.001
ampeg_release=0.05
group_label=Rolls_RR2_78-103
seq_length=2
seq_position=2
trigger=release
xfin_hicc1=103
xfin_locc1=78
xfout_hicc1=127
xfout_locc1=103

<region>
hivel=127
key=D2
loop_end=113538
loop_mode=loop_continuous
loop_start=21100
loop_xfade=21100
lovel=1
offset=509
sample=Bass_a4_PuffyMallets_Center_Buzz_Roll_F_D4_RR2.opus
</region>

<region>
hivel=127
key=D#2
loop_end=112850
loop_mode=loop_continuous
loop_start=20972
loop_xfade=20972
lovel=1
offset=529
sample=Bass_a4_PuffyMallets_Edge_Buzz_Roll_F_D4_RR2.opus
</region>

<region>
hivel=127
key=E2
loop_end=113655
loop_mode=loop_continuous
loop_start=21122
loop_xfade=21122
lovel=1
offset=504
sample=Bass_a4_PuffyMallets_Halfway_Buzz_Roll_F_D4_RR2.opus
</region>
</group>

<group>
amp_veltrack=0
ampeg_attack=0.001
ampeg_release=0.05
group_label=Rolls_RR2_104-127
seq_length=2
seq_position=2
trigger=release
xfin_hicc1=127
xfin_locc1=104
xfout_hicc1=127
xfout_locc1=127

<region>
hivel=127
key=D2
loop_end=113141
loop_mode=loop_continuous
loop_start=21026
loop_xfade=21026
lovel=1
offset=500
sample=Bass_a4_PuffyMallets_Center_Buzz_Roll_FF_D4_RR2.opus
</region>

<region>
hivel=127
key=D#2
loop_end=112249
loop_mode=loop_continuous
loop_start=20860
loop_xfade=20860
lovel=1
offset=530
sample=Bass_a4_PuffyMallets_Edge_Buzz_Roll_FF_D4_RR2.opus
</region>

<region>
hivel=127
key=E2
loop_end=114107
loop_mode=loop_continuous
loop_start=21206
loop_xfade=21206
lovel=1
offset=513
sample=Bass_a4_PuffyMallets_Halfway_Buzz_Roll_FF_D4_RR2.opus
</region>
</group>

<group>
amp_veltrack=0
ampeg_attack=0.01
ampeg_release=0.65
group_label=Rolls_Release_RR1_0-25
seq_length=2
seq_position=1
trigger=release
xfin_hicc1=25
xfout_hicc1=50
xfout_locc1=25

<region>
hivel=127
key=D2
lovel=1
offset=128264
sample=Bass_a4_PuffyMallets_Center_Buzz_Roll_P_D4_RR1.opus
</region>

<region>
hivel=127
key=D#2
lovel=1
offset=134277
sample=Bass_a4_PuffyMallets_Edge_Buzz_Roll_P_D4_RR1.opus
</region>

<region>
hivel=127
key=E2
lovel=1
offset=130073
sample=Bass_a4_PuffyMallets_Halfway_Buzz_Roll_P_D4_RR1.opus
</region>
</group>

<group>
amp_veltrack=0
ampeg_attack=0.01
ampeg_release=0.65
group_label=Rolls_Release_RR1_26-51
seq_length=2
seq_position=1
trigger=release
xfin_hicc1=51
xfin_locc1=26
xfout_hicc1=76
xfout_locc1=51

<region>
hivel=127
key=D2
lovel=1
offset=125448
sample=Bass_a4_PuffyMallets_Center_Buzz_Roll_MP_D4_RR1.opus
</region>

<region>
hivel=127
key=D#2
lovel=1
offset=131288
sample=Bass_a4_PuffyMallets_Edge_Buzz_Roll_MP_D4_RR1.opus
</region>

<region>
hivel=127
key=E2
lovel=1
offset=124594
sample=Bass_a4_PuffyMallets_Halfway_Buzz_Roll_MP_D4_RR1.opus
</region>
</group>

<group>
amp_veltrack=0
ampeg_attack=0.01
ampeg_release=0.65
group_label=Rolls_Release_RR1_52-77
seq_length=2
seq_position=1
trigger=release
xfin_hicc1=77
xfin_locc1=52
xfout_hicc1=102
xfout_locc1=77

<region>
hivel=127
key=D2
lovel=1
offset=124026
sample=Bass_a4_PuffyMallets_Center_Buzz_Roll_MF_D4_RR1.opus
</region>

<region>
hivel=127
key=D#2
lovel=1
offset=126485
sample=Bass_a4_PuffyMallets_Edge_Buzz_Roll_MF_D4_RR1.opus
</region>

<region>
hivel=127
key=E2
lovel=1
offset=128754
sample=Bass_a4_PuffyMallets_Halfway_Buzz_Roll_MF_D4_RR1.opus
</region>
</group>

<group>
amp_veltrack=0
ampeg_attack=0.01
ampeg_release=0.65
group_label=Rolls_Release_RR1_78-103
seq_length=2
seq_position=1
trigger=release
xfin_hicc1=103
xfin_locc1=78
xfout_hicc1=127
xfout_locc1=103

<region>
hivel=127
key=D2
lovel=1
offset=127568
sample=Bass_a4_PuffyMallets_Center_Buzz_Roll_F_D4_RR1.opus
</region>

<region>
hivel=127
key=D#2
lovel=1
offset=130470
sample=Bass_a4_PuffyMallets_Edge_Buzz_Roll_F_D4_RR1.opus
</region>

<region>
hivel=127
key=E2
lovel=1
offset=127811
sample=Bass_a4_PuffyMallets_Halfway_Buzz_Roll_F_D4_RR1.opus
</region>
</group>

<group>
amp_veltrack=0
ampeg_attack=0.01
ampeg_release=0.65
group_label=Rolls_Release_RR1_104-127
seq_length=2
seq_position=1
trigger=release
xfin_hicc1=127
xfin_locc1=104
xfout_hicc1=127
xfout_locc1=127

<region>
hivel=127
key=D2
lovel=1
offset=127306
sample=Bass_a4_PuffyMallets_Center_Buzz_Roll_FF_D4_RR1.opus
</region>

<region>
hivel=127
key=D#2
lovel=1
offset=128257
sample=Bass_a4_PuffyMallets_Edge_Buzz_Roll_FF_D4_RR1.opus
</region>

<region>
hivel=127
key=E2
lovel=1
offset=129794
sample=Bass_a4_PuffyMallets_Halfway_Buzz_Roll_FF_D4_RR1.opus
</region>
</group>

<group>
amp_veltrack=0
ampeg_attack=0.01
ampeg_release=0.65
group_label=Rolls_Release_RR2_0-25
seq_length=2
seq_position=2
trigger=release
xfin_hicc1=25
xfout_hicc1=50
xfout_locc1=25

<region>
hivel=127
key=D2
lovel=1
offset=129499
sample=Bass_a4_PuffyMallets_Center_Buzz_Roll_P_D4_RR2.opus
</region>

<region>
hivel=127
key=D#2
lovel=1
offset=133206
sample=Bass_a4_PuffyMallets_Edge_Buzz_Roll_P_D4_RR2.opus
</region>

<region>
hivel=127
key=E2
lovel=1
offset=131300
sample=Bass_a4_PuffyMallets_Halfway_Buzz_Roll_P_D4_RR2.opus
</region>
</group>

<group>
amp_veltrack=0
ampeg_attack=0.01
ampeg_release=0.65
group_label=Rolls_Release_RR2_26-51
seq_length=2
seq_position=2
trigger=release
xfin_hicc1=51
xfin_locc1=26
xfout_hicc1=76
xfout_locc1=51

<region>
hivel=127
key=D2
lovel=1
offset=124968
sample=Bass_a4_PuffyMallets_Center_Buzz_Roll_MP_D4_RR2.opus
</region>

<region>
hivel=127
key=D#2
lovel=1
offset=128295
sample=Bass_a4_PuffyMallets_Edge_Buzz_Roll_MP_D4_RR2.opus
</region>

<region>
hivel=127
key=E2
lovel=1
offset=124275
sample=Bass_a4_PuffyMallets_Halfway_Buzz_Roll_MP_D4_RR2.opus
</region>
</group>

<group>
amp_veltrack=0
ampeg_attack=0.01
ampeg_release=0.65
group_label=Rolls_Release_RR2_52-77
seq_length=2
seq_position=2
trigger=release
xfin_hicc1=77
xfin_locc1=52
xfout_hicc1=102
xfout_locc1=77

<region>
hivel=127
key=D2
lovel=1
offset=123198
sample=Bass_a4_PuffyMallets_Center_Buzz_Roll_MF_D4_RR2.opus
</region>

<region>
hivel=127
key=D#2
lovel=1
offset=126474
sample=Bass_a4_PuffyMallets_Edge_Buzz_Roll_MF_D4_RR2.opus
</region>

<region>
hivel=127
key=E2
lovel=1
offset=128184
sample=Bass_a4_PuffyMallets_Halfway_Buzz_Roll_MF_D4_RR2.opus
</region>
</group>

<group>
amp_veltrack=0
ampeg_attack=0.01
ampeg_release=0.65
group_label=Rolls_Release_RR2_78-103
seq_length=2
seq_position=2
trigger=release
xfin_hicc1=103
xfin_locc1=78
xfout_hicc1=127
xfout_locc1=103

<region>
hivel=127
key=D2
lovel=1
offset=128637
sample=Bass_a4_PuffyMallets_Center_Buzz_Roll_F_D4_RR2.opus
</region>

<region>
hivel=127
key=D#2
lovel=1
offset=123574
sample=Bass_a4_PuffyMallets_Edge_Buzz_Roll_F_D4_RR2.opus
</region>

<region>
hivel=127
key=E2
lovel=1
offset=129881
sample=Bass_a4_PuffyMallets_Halfway_Buzz_Roll_F_D4_RR2.opus
</region>
</group>

<group>
amp_veltrack=0
ampeg_attack=0.01
ampeg_release=0.65
group_label=Rolls_Release_RR2_104-127
seq_length=2
seq_position=2
trigger=release
xfin_hicc1=127
xfin_locc1=104
xfout_hicc1=127
xfout_locc1=127

<region>
hivel=127
key=D2
lovel=1
offset=128399
sample=Bass_a4_PuffyMallets_Center_Buzz_Roll_FF_D4_RR2.opus
</region>

<region>
hivel=127
key=D#2
lovel=1
offset=126725
sample=Bass_a4_PuffyMallets_Edge_Buzz_Roll_FF_D4_RR2.opus
</region>

<region>
hivel=127
key=E2
lovel=1
offset=128599
sample=Bass_a4_PuffyMallets_Halfway_Buzz_Roll_FF_D4_RR2.opus
</region>
</group>